pinch_force_states
version=1
nRows=14
nColumns=45
inDegrees=yes

# SIMM Motion File Header:
name pinch_force_states
datacolumns 45
datarows 14
otherdata 1
range 0.04995262 0.05125262
endheader
time	deviation	flexion	wrist_hand_r1	wrist_hand_r3	cmc_flexion	cmc_abduction	mp_flexion	ip_flexion	deviation_u	flexion_u	wrist_hand_r1_u	wrist_hand_r3_u	cmc_flexion_u	cmc_abduction_u	mp_flexion_u	ip_flexion_u	ECRL.activation	ECRL.fiber_length	ECRB.activation	ECRB.fiber_length	ECU.activation	ECU.fiber_length	FCR.activation	FCR.fiber_length	FCU.activation	FCU.fiber_length	EPL.activation	EPL.fiber_length	EPB.activation	EPB.fiber_length	FPL.activation	FPL.fiber_length	APL.activation	APL.fiber_length	APB.activation	APB.fiber_length	FPB.activation	FPB.fiber_length	OPP.activation	OPP.fiber_length	ADPt.activation	ADPt.fiber_length	ADPo.activation	ADPo.fiber_length
      0.04995262	      0.78241836	     -2.50415341	      1.05310644	     -1.25207671	    -13.82807426	    -14.53773165	     17.91072391	     44.31097896	     -1.73599591	    -19.73368868	     -2.31718304	     -9.86684434	     13.60467344	     37.00985900	    -13.46014828	     26.52377837	      0.01238483	      0.06419413	      0.36622056	      0.05516285	      0.99862122	      0.05945663	      0.01000000	      0.05111834	      0.60768366	      0.03036510	      0.47396701	      0.05225651	      0.07694563	      0.06437983	      1.00000000	      0.05404591	      0.01293340	      0.07122137	      0.08647987	      0.05305172	      0.12944159	      0.05051271	      0.51645636	      0.04480662	      0.99666356	      0.03871185	      0.87323913	      0.03189628
      0.05005262	      0.78223541	     -2.50616529	      1.05286223	     -1.25308265	    -13.82669067	    -14.53396535	     17.90937266	     44.31365932	     -1.92234569	    -20.50281946	     -2.56593017	    -10.25140973	     14.06629155	     38.31457051	    -13.56532689	     27.08353503	      0.01238483	      0.06419478	      0.36622056	      0.05516286	      0.99862122	      0.05945610	      0.01000000	      0.05111794	      0.60768366	      0.03036478	      0.47396701	      0.05225695	      0.07694563	      0.06437977	      1.00000000	      0.05404618	      0.01293340	      0.07122153	      0.08647987	      0.05305161	      0.12944159	      0.05051280	      0.51645636	      0.04480652	      0.99666356	      0.03871209	      0.87323913	      0.03189670
      0.05015262	      0.78203404	     -2.50825376	      1.05259345	     -1.25412688	    -13.82526116	    -14.53006902	     17.90801073	     44.31639567	     -2.10423955	    -21.26538621	     -2.80873261	    -10.63269311	     14.52313550	     39.61060052	    -13.67380956	     27.64350610	      0.01238483	      0.06419542	      0.36622056	      0.05516287	      0.99862122	      0.05945557	      0.01000000	      0.05111756	      0.60768366	      0.03036445	      0.47396701	      0.05225738	      0.07694563	      0.06437970	      1.00000000	      0.05404645	      0.01293340	      0.07122169	      0.08647987	      0.05305149	      0.12944159	      0.05051290	      0.51645636	      0.04480641	      0.99666356	      0.03871234	      0.87323913	      0.03189711
      0.05025262	      0.78181471	     -2.51041815	      1.05230069	     -1.25520907	    -13.82378620	    -14.52604353	     17.90663779	     44.31918802	     -2.28168781	    -22.02127246	     -3.04560431	    -11.01063623	     14.97514244	     40.89771950	    -13.78552890	     28.20353787	      0.01238483	      0.06419603	      0.36622056	      0.05516288	      0.99862122	      0.05945504	      0.01000000	      0.05111719	      0.60768366	      0.03036413	      0.47396701	      0.05225781	      0.07694563	      0.06437964	      1.00000000	      0.05404673	      0.01293340	      0.07122185	      0.08647987	      0.05305136	      0.12944159	      0.05051299	      0.51645636	      0.04480630	      0.99666356	      0.03871258	      0.87323913	      0.03189752
      0.05035262	      0.78157785	     -2.51265778	      1.05198453	     -1.25632889	    -13.82226629	    -14.52188978	     17.90525352	     44.32203638	     -2.45470228	    -22.77036342	     -3.27656119	    -11.38518171	     15.42225155	     42.17569997	    -13.90041762	     28.76347754	      0.01238483	      0.06419662	      0.36622056	      0.05516288	      0.99862122	      0.05945451	      0.01000000	      0.05111683	      0.60768366	      0.03036381	      0.47396701	      0.05225825	      0.07694563	      0.06437957	      1.00000000	      0.05404700	      0.01293340	      0.07122199	      0.08647987	      0.05305121	      0.12944159	      0.05051309	      0.51645636	      0.04480618	      0.99666356	      0.03871282	      0.87323913	      0.03189793
      0.05045262	      0.78132392	     -2.51497199	      1.05164557	     -1.25748599	    -13.82070192	    -14.51760870	     17.90385760	     44.32494071	     -2.62329622	    -23.51254605	     -3.50162111	    -11.75627303	     15.86440396	     43.44431659	    -14.01840854	     29.32317334	      0.01238483	      0.06419719	      0.36622056	      0.05516289	      0.99862122	      0.05945398	      0.01000000	      0.05111648	      0.60768366	      0.03036350	      0.47396701	      0.05225868	      0.07694563	      0.06437951	      1.00000000	      0.05404727	      0.01293340	      0.07122213	      0.08647987	      0.05305105	      0.12944159	      0.05051318	      0.51645636	      0.04480606	      0.99666356	      0.03871306	      0.87323913	      0.03189834
      0.05055262	      0.78105334	     -2.51736006	      1.05128440	     -1.25868003	    -13.81909358	    -14.51320124	     17.90244974	     44.32790100	     -2.78748435	    -24.24770904	     -3.72080380	    -12.12385452	     16.30154280	     44.70334612	    -14.13943458	     29.88247450	      0.01238483	      0.06419774	      0.36622056	      0.05516289	      0.99862122	      0.05945345	      0.01000000	      0.05111615	      0.60768366	      0.03036318	      0.47396701	      0.05225911	      0.07694563	      0.06437944	      1.00000000	      0.05404754	      0.01293340	      0.07122227	      0.08647987	      0.05305088	      0.12944159	      0.05051328	      0.51645636	      0.04480594	      0.99666356	      0.03871331	      0.87323913	      0.03189875
      0.05065262	      0.78076656	     -2.51982129	      1.05090160	     -1.25991065	    -13.81744178	    -14.50866836	     17.90102962	     44.33091719	     -2.94728275	    -24.97574283	     -3.93413085	    -12.48787142	     16.73361316	     45.95256758	    -14.26342884	     30.44123130	      0.01238483	      0.06419827	      0.36622056	      0.05516289	      0.99862122	      0.05945292	      0.01000000	      0.05111583	      0.60768366	      0.03036287	      0.47396701	      0.05225955	      0.07694563	      0.06437937	      1.00000000	      0.05404781	      0.01293340	      0.07122240	      0.08647987	      0.05305070	      0.12944159	      0.05051338	      0.51645636	      0.04480581	      0.99666356	      0.03871356	      0.87323913	      0.03189916
      0.05075262	      0.78046403	     -2.52235497	      1.05049777	     -1.26117748	    -13.81574703	    -14.50401106	     17.89959695	     44.33398922	     -3.10270890	    -25.69653964	     -4.14162566	    -12.84826982	     17.16056208	     47.19176224	    -14.39032455	     30.99929515	      0.01238483	      0.06419878	      0.36622056	      0.05516289	      0.99862122	      0.05945239	      0.01000000	      0.05111552	      0.60768366	      0.03036257	      0.47396701	      0.05225998	      0.07694563	      0.06437930	      1.00000000	      0.05404809	      0.01293340	      0.07122253	      0.08647987	      0.05305051	      0.12944159	      0.05051347	      0.51645636	      0.04480567	      0.99666356	      0.03871380	      0.87323913	      0.03189957
      0.05085262	      0.78014617	     -2.52496035	      1.05007347	     -1.26248018	    -13.81400984	    -14.49923035	     17.89815146	     44.33711702	     -3.25378160	    -26.40999347	     -4.34331337	    -13.20499674	     17.58233855	     48.42071373	    -14.52005513	     31.55651858	      0.01238483	      0.06419927	      0.36622056	      0.05516288	      0.99862122	      0.05945186	      0.01000000	      0.05111523	      0.60768366	      0.03036227	      0.47396701	      0.05226042	      0.07694563	      0.06437924	      1.00000000	      0.05404836	      0.01293340	      0.07122265	      0.08647987	      0.05305030	      0.12944159	      0.05051357	      0.51645636	      0.04480553	      0.99666356	      0.03871405	      0.87323913	      0.03189997
      0.05095262	      0.77981342	     -2.52763672	      1.04962930	     -1.26381836	    -13.81223073	    -14.49432727	     17.89669285	     44.34030049	     -3.40052095	    -27.11600013	     -4.53922085	    -13.55800007	     17.99889349	     49.63920802	    -14.65255417	     32.11275531	      0.01238483	      0.06419974	      0.36622056	      0.05516288	      0.99862122	      0.05945134	      0.01000000	      0.05111495	      0.60768366	      0.03036197	      0.47396701	      0.05226085	      0.07694563	      0.06437917	      1.00000000	      0.05404863	      0.01293340	      0.07122276	      0.08647987	      0.05305008	      0.12944159	      0.05051367	      0.51645636	      0.04480539	      0.99666356	      0.03871430	      0.87323913	      0.03190038
      0.05105262	      0.77946621	     -2.53038330	      1.04916582	     -1.26519165	    -13.81041023	    -14.48930286	     17.89522086	     44.34353953	     -3.54294832	    -27.81445725	     -4.72937666	    -13.90722863	     18.41017974	     50.84703357	    -14.78775548	     32.66786028	      0.01238483	      0.06420018	      0.36622056	      0.05516287	      0.99862122	      0.05945081	      0.01000000	      0.05111469	      0.60768366	      0.03036167	      0.47396701	      0.05226129	      0.07694563	      0.06437910	      1.00000000	      0.05404890	      0.01293340	      0.07122287	      0.08647987	      0.05304985	      0.12944159	      0.05051377	      0.51645636	      0.04480524	      0.99666356	      0.03871455	      0.87323913	      0.03190078
      0.05115262	      0.77910497	     -2.53319935	      1.04868361	     -1.26659968	    -13.80854887	    -14.48415822	     17.89373521	     44.34683402	     -3.68108631	    -28.50526429	     -4.91381096	    -14.25263215	     18.81615205	     52.04398131	    -14.92559306	     33.22168968	      0.01238483	      0.06420061	      0.36622056	      0.05516286	      0.99862122	      0.05945028	      0.01000000	      0.05111444	      0.60768366	      0.03036138	      0.47396701	      0.05226172	      0.07694563	      0.06437903	      1.00000000	      0.05404917	      0.01293340	      0.07122297	      0.08647987	      0.05304961	      0.12944159	      0.05051387	      0.51645636	      0.04480509	      0.99666356	      0.03871480	      0.87323913	      0.03190118
      0.05125262	      0.77873013	     -2.53608410	      1.04818325	     -1.26804205	    -13.80664718	    -14.47889444	     17.89223565	     44.35018382	     -3.81495873	    -29.18832256	     -5.09255552	    -14.59416128	     19.21676704	     53.22984474	    -15.06600118	     33.77410100	      0.01238483	      0.06420101	      0.36622056	      0.05516285	      0.99862122	      0.05944976	      0.01000000	      0.05111420	      0.60768366	      0.03036109	      0.47396701	      0.05226216	      0.07694563	      0.06437895	      1.00000000	      0.05404944	      0.01293340	      0.07122307	      0.08647987	      0.05304936	      0.12944159	      0.05051397	      0.51645636	      0.04480493	      0.99666356	      0.03871505	      0.87323913	      0.03190159
